<?xml version="1.0" encoding="iso-8859-1"?>
<!-- Generator: Adobe Illustrator 25.3.1, SVG Export Plug-In . SVG Version: 6.00 Build 0)  -->
<svg version="1.1" id="Layer_1" xmlns="http://www.w3.org/2000/svg" xmlns:xlink="http://www.w3.org/1999/xlink" x="0px" y="0px"
	 width="1000px" height="1000px" viewBox="0 0 1000 1000" enable-background="new 0 0 1000 1000" xml:space="preserve">
<linearGradient id="SVGID_1_" gradientUnits="userSpaceOnUse" x1="74.0413" y1="440.3975" x2="345.3659" y2="169.0729">
	<stop  offset="0" style="stop-color:#0000FF"/>
	<stop  offset="1" style="stop-color:#A200FF"/>
</linearGradient>
<path fill="url(#SVGID_1_)" d="M364.41,332.07c-30.86-17.77-52.38,4.68-112.24-30.86c31.8-16.84,52.38-23.39,82.31-23.39
	c29,0,58.93-26.19,58.93-53.31c0-28.06-24.32-48.64-47.71-48.64c-58.92,0-42.09,50.51-113.17,90.73
	c0-70.15,29.93-77.64,29.93-113.18c0-32.74-21.52-54.25-49.58-54.25s-48.63,21.51-48.63,54.25c0,42.09,26.19,27.13,28.99,113.18
	c-71.09-40.22-55.18-90.73-113.18-90.73c-24.32,0-47.7,20.58-47.7,48.64c0,27.12,29,53.31,58.93,53.31
	c28.06,0,51.44,8.42,82.31,23.39c-59.86,35.54-81.38,13.09-112.24,30.86c-19.65,11.23-29,29-29,46.77c0,27.13,22.45,47.7,45.83,47.7
	c50.51,0,57.06-62.66,115.99-90.73c-0.94,70.16-29.93,77.64-29.93,113.18c0,31.8,21.51,53.32,49.57,53.32
	c27.12,0,47.7-20.58,47.7-52.38c0-43.96-26.19-27.13-28.06-115.05c59.86,25.25,57.06,91.66,114.12,91.66
	c23.38,0,45.83-20.57,45.83-47.7C393.41,361.07,383.12,343.3,364.41,332.07z"/>
<linearGradient id="SVGID_2_" gradientUnits="userSpaceOnUse" x1="285.4859" y1="1012.7629" x2="1016.6552" y2="213.5269">
	<stop  offset="0.1483" style="stop-color:#FFCE00"/>
	<stop  offset="1" style="stop-color:#FF8D00"/>
</linearGradient>
<path fill="url(#SVGID_2_)" d="M826.23,680.36L603.54,136.21h-68.95L289.54,750.24c-21.44,53.11-47.52,68.95-107.16,75.47v37.27
	h255.31v-37.27c-55.91,0-83.86-5.59-83.86-42.86c0-20.17,8.35-50.93,25.93-94.86l0.55-1.37c5.02-12.51,10.79-26.07,17.31-40.74
	h263.69l9.27,24.18l12.16,31.73c14.91,39.13,24.23,66.15,24.23,83.86c0,29.81-24.23,36.34-83.86,39.13v38.2h352.2v-38.2
	C891.45,816.4,877.48,806.15,826.23,680.36z M419.05,589.98l20.07-51.09l0.13-0.34l90.68-230.9h3.73l87.63,230.9l19.52,51.43H419.05
	z"/>
</svg>
